<svg xmlns="http://www.w3.org/2000/svg" viewBox="0 0 60 40"><title>closed</title><g style="isolation:isolate"><g id="Ebene_2" data-name="Ebene 2"><path d="M4.59,9,1,29,54.41,39,58,19Zm15.91,6.2a1,1,0,1,1,1-1A1,1,0,0,1,20.49,15.2ZM40.33,19a1,1,0,1,1,1-1A1,1,0,0,1,40.33,19Z" fill="#c01a1a"/><path d="M10,17.67a1.85,1.85,0,0,1,1.74-.45,2.89,2.89,0,0,1,.92.38,9.67,9.67,0,0,1,.88.61l.89-1.38a5.82,5.82,0,0,0-2.38-1.15,4.12,4.12,0,0,0-2.24.09A3.59,3.59,0,0,0,8.14,17a5.62,5.62,0,0,0-1,2.29,5.12,5.12,0,0,0,.31,3.54,3.66,3.66,0,0,0,2.62,1.77,6,6,0,0,0,2.44.05l.32-1.56a6.74,6.74,0,0,1-2.27,0Q8.43,22.67,9,19.74A3.77,3.77,0,0,1,10,17.67Z" fill="#fff"/><polygon points="17.88 17.04 16.07 16.66 14.28 25.41 19.56 26.54 19.87 25.01 16.41 24.27 17.88 17.04" fill="#fff"/><path d="M26.56,18.76a4,4,0,0,0-3.26.51,4.83,4.83,0,0,0-1.74,3.11A5,5,0,0,0,21.93,26a4,4,0,0,0,2.78,1.82A3.9,3.9,0,0,0,28,27.25a4.87,4.87,0,0,0,1.73-3.12,5,5,0,0,0-.36-3.57A4,4,0,0,0,26.56,18.76Zm1.24,5q-.6,3-2.77,2.49a2,2,0,0,1-1.47-1.09,3.82,3.82,0,0,1-.09-2.33,3.75,3.75,0,0,1,1-2.1,1.92,1.92,0,0,1,1.78-.4Q28.4,20.76,27.8,23.72Z" fill="#fff"/><path d="M33.64,22.16a1.16,1.16,0,0,1,.84-.08,3.7,3.7,0,0,1,.86.3,8.41,8.41,0,0,1,1,.64l.88-1.32A8.93,8.93,0,0,0,36.09,21a5.07,5.07,0,0,0-1.24-.43,3.2,3.2,0,0,0-2.26.21,2.31,2.31,0,0,0-1.14,1.66,2.42,2.42,0,0,0,0,1.13,2.81,2.81,0,0,0,.46.94,5.4,5.4,0,0,0,1,1,11,11,0,0,1,1,.83,1.64,1.64,0,0,1,.33.47.8.8,0,0,1,0,.49.81.81,0,0,1-.46.63,1.55,1.55,0,0,1-1,0,4.32,4.32,0,0,1-1.06-.4,10.09,10.09,0,0,1-1.35-.87l-.35,1.72a5.49,5.49,0,0,0,2.31,1,3.61,3.61,0,0,0,2.46-.19,2.31,2.31,0,0,0,1.21-1.69A2.4,2.4,0,0,0,36,26a4.74,4.74,0,0,0-1.4-1.53,11.18,11.18,0,0,1-1-.86,1.28,1.28,0,0,1-.28-.43.9.9,0,0,1,.38-1Z" fill="#fff"/><polygon points="43.56 24.13 43.87 22.61 38.95 21.56 37.17 30.31 42.09 31.37 42.4 29.83 39.29 29.17 39.75 26.91 42.65 27.53 42.95 26.01 40.06 25.39 40.45 23.46 43.56 24.13" fill="#fff"/><path d="M51.36,25.39a4.6,4.6,0,0,0-3-1.83L45.66,23l-1.79,8.76,2.42.52a4.9,4.9,0,0,0,3.7-.41,4.41,4.41,0,0,0,1.88-3.06A4.33,4.33,0,0,0,51.36,25.39ZM50,28.45q-.59,2.88-3.21,2.32L46,30.6l1.16-5.7,1,.21Q50.55,25.63,50,28.45Z" fill="#fff"/><g style="mix-blend-mode:multiply"><path d="M40.33,17.55a.51.51,0,0,1-.48-.33L34.29,2.32,20.83,14.16a.51.51,0,0,1-.67-.77L34.73.58,40.8,16.86a.51.51,0,0,1-.3.66A.5.5,0,0,1,40.33,17.55Z" fill="#b1b1b1"/></g></g></g></svg>